<svg width="121" height="27" viewBox="0 0 121 27" fill="none" xmlns="http://www.w3.org/2000/svg">
<path d="M2.47461 18.9268H7.19141V20H1.15527V10.0469H2.47461V18.9268ZM12.2596 20.1367C11.257 20.1367 10.4412 19.8086 9.8123 19.1523C9.1834 18.4915 8.86895 17.6097 8.86895 16.5068V16.2744C8.86895 15.5407 9.00794 14.8867 9.28594 14.3125C9.56849 13.7337 9.96042 13.2826 10.4617 12.959C10.9676 12.6309 11.5145 12.4668 12.1023 12.4668C13.0639 12.4668 13.8113 12.7835 14.3445 13.417C14.8777 14.0505 15.1443 14.9574 15.1443 16.1377V16.6641H10.1336C10.1518 17.3932 10.3637 17.9834 10.7693 18.4346C11.1795 18.8812 11.699 19.1045 12.3279 19.1045C12.7745 19.1045 13.1528 19.0133 13.4627 18.8311C13.7726 18.6488 14.0437 18.4072 14.2762 18.1064L15.0486 18.708C14.4288 19.6605 13.4992 20.1367 12.2596 20.1367ZM12.1023 13.5059C11.5919 13.5059 11.1635 13.6927 10.8172 14.0664C10.4708 14.4355 10.2566 14.9551 10.1746 15.625H13.8797V15.5293C13.8432 14.8867 13.6701 14.39 13.3602 14.0391C13.0503 13.6836 12.631 13.5059 12.1023 13.5059ZM21.8805 20C21.8076 19.8542 21.7483 19.5944 21.7027 19.2207C21.1148 19.8314 20.413 20.1367 19.5973 20.1367C18.8681 20.1367 18.2688 19.9316 17.7994 19.5215C17.3346 19.1068 17.1021 18.5827 17.1021 17.9492C17.1021 17.179 17.3938 16.582 17.9771 16.1582C18.565 15.7298 19.3899 15.5156 20.4518 15.5156H21.6822V14.9346C21.6822 14.4925 21.5501 14.1416 21.2857 13.8818C21.0214 13.6175 20.6318 13.4854 20.1168 13.4854C19.6656 13.4854 19.2874 13.5993 18.982 13.8271C18.6767 14.055 18.524 14.3307 18.524 14.6543H17.2525C17.2525 14.2852 17.3824 13.9297 17.6422 13.5879C17.9065 13.2415 18.262 12.9681 18.7086 12.7676C19.1598 12.5671 19.6542 12.4668 20.192 12.4668C21.0442 12.4668 21.7118 12.681 22.1949 13.1094C22.678 13.5332 22.9286 14.1188 22.9469 14.8662V18.2705C22.9469 18.9495 23.0335 19.4896 23.2066 19.8906V20H21.8805ZM19.7818 19.0361C20.1783 19.0361 20.5543 18.9336 20.9098 18.7285C21.2652 18.5234 21.5227 18.2568 21.6822 17.9287V16.4111H20.691C19.1415 16.4111 18.3668 16.8646 18.3668 17.7715C18.3668 18.168 18.499 18.4779 18.7633 18.7012C19.0276 18.9245 19.3671 19.0361 19.7818 19.0361ZM29.2045 13.7383C29.0131 13.7064 28.8057 13.6904 28.5824 13.6904C27.753 13.6904 27.1902 14.0436 26.8939 14.75V20H25.6293V12.6035H26.8598L26.8803 13.458C27.295 12.7972 27.8829 12.4668 28.6439 12.4668C28.89 12.4668 29.0769 12.4987 29.2045 12.5625V13.7383ZM32.2697 12.6035L32.3107 13.5332C32.8758 12.8223 33.6141 12.4668 34.5256 12.4668C36.0887 12.4668 36.8771 13.3486 36.8908 15.1123V20H35.6262V15.1055C35.6216 14.5723 35.4986 14.1781 35.257 13.9229C35.0201 13.6676 34.6486 13.54 34.1428 13.54C33.7326 13.54 33.3726 13.6494 33.0627 13.8682C32.7528 14.0869 32.5113 14.374 32.3381 14.7295V20H31.0734V12.6035H32.2697ZM44.8602 12.6035L44.8943 13.4238C45.4367 12.7858 46.1681 12.4668 47.0887 12.4668C48.1232 12.4668 48.8273 12.8633 49.201 13.6562C49.4471 13.3008 49.7661 13.0137 50.158 12.7949C50.5545 12.5762 51.0216 12.4668 51.5594 12.4668C53.1818 12.4668 54.0066 13.3258 54.034 15.0439V20H52.7693V15.1191C52.7693 14.5905 52.6486 14.1963 52.407 13.9365C52.1655 13.6722 51.7599 13.54 51.1902 13.54C50.7208 13.54 50.3312 13.6813 50.0213 13.9639C49.7114 14.2419 49.5314 14.6178 49.4813 15.0918V20H48.2098V15.1533C48.2098 14.0778 47.6834 13.54 46.6307 13.54C45.8012 13.54 45.2339 13.8932 44.9285 14.5996V20H43.6639V12.6035H44.8602ZM56.3131 16.2334C56.3131 15.5088 56.4544 14.8571 56.7369 14.2783C57.024 13.6995 57.4205 13.2529 57.9264 12.9385C58.4368 12.624 59.0178 12.4668 59.6695 12.4668C60.6767 12.4668 61.4902 12.8154 62.11 13.5127C62.7343 14.21 63.0465 15.1374 63.0465 16.2949V16.3838C63.0465 17.1038 62.9075 17.751 62.6295 18.3252C62.3561 18.8949 61.9619 19.3392 61.4469 19.6582C60.9365 19.9772 60.3486 20.1367 59.6832 20.1367C58.6806 20.1367 57.8671 19.7881 57.2428 19.0908C56.623 18.3936 56.3131 17.4707 56.3131 16.3223V16.2334ZM57.5846 16.3838C57.5846 17.2041 57.7737 17.8626 58.152 18.3594C58.5348 18.8561 59.0452 19.1045 59.6832 19.1045C60.3258 19.1045 60.8362 18.8538 61.2145 18.3525C61.5927 17.8467 61.7818 17.1403 61.7818 16.2334C61.7818 15.4222 61.5882 14.766 61.2008 14.2646C60.818 13.7588 60.3076 13.5059 59.6695 13.5059C59.0452 13.5059 58.5416 13.7542 58.1588 14.251C57.776 14.7477 57.5846 15.4587 57.5846 16.3838ZM68.9076 13.7383C68.7162 13.7064 68.5089 13.6904 68.2855 13.6904C67.4561 13.6904 66.8933 14.0436 66.5971 14.75V20H65.3324V12.6035H66.5629L66.5834 13.458C66.9981 12.7972 67.586 12.4668 68.3471 12.4668C68.5932 12.4668 68.78 12.4987 68.9076 12.5625V13.7383ZM73.7092 20.1367C72.7066 20.1367 71.8908 19.8086 71.2619 19.1523C70.633 18.4915 70.3186 17.6097 70.3186 16.5068V16.2744C70.3186 15.5407 70.4576 14.8867 70.7355 14.3125C71.0181 13.7337 71.41 13.2826 71.9113 12.959C72.4172 12.6309 72.9641 12.4668 73.552 12.4668C74.5135 12.4668 75.2609 12.7835 75.7941 13.417C76.3273 14.0505 76.5939 14.9574 76.5939 16.1377V16.6641H71.5832C71.6014 17.3932 71.8133 17.9834 72.2189 18.4346C72.6291 18.8812 73.1486 19.1045 73.7775 19.1045C74.2242 19.1045 74.6024 19.0133 74.9123 18.8311C75.2222 18.6488 75.4934 18.4072 75.7258 18.1064L76.4982 18.708C75.8785 19.6605 74.9488 20.1367 73.7092 20.1367ZM73.552 13.5059C73.0415 13.5059 72.6132 13.6927 72.2668 14.0664C71.9204 14.4355 71.7063 14.9551 71.6242 15.625H75.3293V15.5293C75.2928 14.8867 75.1197 14.39 74.8098 14.0391C74.4999 13.6836 74.0806 13.5059 73.552 13.5059Z" fill="#5A98D0"/>
<path d="M109.337 8.6582L108.005 9.94771L113.276 15.06H101.779V16.8891H113.276L108.005 22.0014L109.337 23.2909L116.895 15.9745L109.337 8.6582Z" fill="#5A98D0"/>
</svg>
